<svg width="534" height="267" viewBox="0 0 534 267" fill="none" xmlns="http://www.w3.org/2000/svg">
    <path d="M287.149 0.396651C285.649 3.39665 244.149 25.3967 244.149 25.3967C252.149 26.3967 271.949 31.0967 287.149 41.8967C302.349 49.8967 286.149 45.3967 281.649 44.8967C277.149 44.3967 283.349 44.2967 268.149 41.8967C252.949 39.4967 211.649 35.3967 206.149 35.8967C200.649 36.3967 199.149 39.8967 197.649 42.3967C196.149 44.8967 173.149 64.3966 157.649 75.3967C142.149 86.3967 135.238 103.676 128.649 113.397C120.784 124.999 121.149 136.563 117.149 147.397C114.38 154.897 117.649 152.397 131.649 158.397C145.649 164.397 150.649 166.897 138.149 181.897L118.149 195.897L97.6489 212.397C95.6489 216.063 90.1489 223.897 90.1489 223.897L68.6489 251.897C68.6489 251.897 61.149 262.397 51.649 265.897C42.149 269.397 34.649 258.397 34.649 258.397L26.1489 221.397C26.1489 221.397 24.8156 187.563 29.149 182.897C23.9823 176.397 12.4489 162.397 7.64889 158.397C2.84889 154.397 -6.85115 138.397 7.64889 137.397L48.6489 129.397C48.6489 129.397 46.6489 122.397 65.6489 97.3967C84.6489 72.3967 121.149 42.3967 121.149 42.3967C121.149 42.3967 133.555 32.8535 142.149 28.3967C149.173 24.7539 161.649 22.8967 161.649 22.8967L211.649 19.3967C211.649 19.3967 225.971 11.9517 235.649 8.39665C247.03 4.21573 253.592 1.68547 265.649 0.396651C273.998 -0.495814 287.149 0.396651 287.149 0.396651Z" fill="url(#paint0_linear_0_1)"/>
    <path d="M232.436 193.697H280.836V221.897H194.236V194.697L240.636 138.497H194.636V110.297H279.836V137.497L232.436 193.697ZM404.854 164.297C404.854 167.497 404.654 170.83 404.254 174.297H326.854C327.388 181.23 329.588 186.563 333.454 190.297C337.454 193.897 342.321 195.697 348.054 195.697C356.588 195.697 362.521 192.097 365.854 184.897H402.254C400.388 192.23 396.988 198.83 392.054 204.697C387.254 210.563 381.188 215.163 373.854 218.497C366.521 221.83 358.321 223.497 349.254 223.497C338.321 223.497 328.588 221.163 320.054 216.497C311.521 211.83 304.854 205.163 300.054 196.497C295.254 187.83 292.854 177.697 292.854 166.097C292.854 154.497 295.188 144.363 299.854 135.697C304.654 127.03 311.321 120.363 319.854 115.697C328.388 111.03 338.188 108.697 349.254 108.697C360.054 108.697 369.654 110.963 378.054 115.497C386.454 120.03 392.988 126.497 397.654 134.897C402.454 143.297 404.854 153.097 404.854 164.297ZM369.854 155.297C369.854 149.43 367.854 144.763 363.854 141.297C359.854 137.83 354.854 136.097 348.854 136.097C343.121 136.097 338.254 137.763 334.254 141.097C330.388 144.43 327.988 149.163 327.054 155.297H369.854ZM490.897 109.097C503.963 109.097 514.363 113.363 522.097 121.897C529.963 130.297 533.897 141.897 533.897 156.697V221.897H499.897V161.297C499.897 153.83 497.963 148.03 494.097 143.897C490.23 139.763 485.03 137.697 478.497 137.697C471.963 137.697 466.763 139.763 462.897 143.897C459.03 148.03 457.097 153.83 457.097 161.297V221.897H422.897V110.297H457.097V125.097C460.563 120.163 465.23 116.297 471.097 113.497C476.963 110.563 483.563 109.097 490.897 109.097Z" fill="url(#paint1_linear_0_1)"/>
    <defs>
    <linearGradient id="paint0_linear_0_1" x1="192.649" y1="34.8967" x2="64.6489" y2="210.397" gradientUnits="userSpaceOnUse">
    <stop stop-color="#FFAD80"/>
    <stop offset="1" stop-color="#FD99FF"/>
    </linearGradient>
    <linearGradient id="paint1_linear_0_1" x1="232.098" y1="149.397" x2="433.612" y2="-14.0369" gradientUnits="userSpaceOnUse">
    <stop stop-color="#FD99FF"/>
    <stop offset="1" stop-color="#FBAF83"/>
    </linearGradient>
    </defs>
    </svg>
    