<svg width="294" height="267" viewBox="0 0 294 267" fill="none" xmlns="http://www.w3.org/2000/svg">
<path d="M287.149 0.396651C285.649 3.39665 244.149 25.3967 244.149 25.3967C252.149 26.3967 271.949 31.0967 287.149 41.8967C302.349 49.8967 286.149 45.3967 281.649 44.8967C277.149 44.3967 283.349 44.2967 268.149 41.8967C252.949 39.4967 211.649 35.3967 206.149 35.8967C200.649 36.3967 199.149 39.8967 197.649 42.3967C196.149 44.8967 173.149 64.3966 157.649 75.3967C142.149 86.3967 135.238 103.676 128.649 113.397C120.784 124.999 121.149 136.563 117.149 147.397C114.38 154.897 117.649 152.397 131.649 158.397C145.649 164.397 150.649 166.897 138.149 181.897L118.149 195.897L97.6489 212.397C95.6489 216.063 90.1489 223.897 90.1489 223.897L68.6489 251.897C68.6489 251.897 61.149 262.397 51.649 265.897C42.149 269.397 34.649 258.397 34.649 258.397L26.1489 221.397C26.1489 221.397 24.8156 187.563 29.149 182.897C23.9823 176.397 12.4489 162.397 7.64889 158.397C2.84889 154.397 -6.85115 138.397 7.64889 137.397L48.6489 129.397C48.6489 129.397 46.6489 122.397 65.6489 97.3967C84.6489 72.3967 121.149 42.3967 121.149 42.3967C121.149 42.3967 133.555 32.8535 142.149 28.3967C149.173 24.7539 161.649 22.8967 161.649 22.8967L211.649 19.3967C211.649 19.3967 225.971 11.9517 235.649 8.39665C247.03 4.21573 253.592 1.68547 265.649 0.396651C273.998 -0.495814 287.149 0.396651 287.149 0.396651Z" fill="url(#paint0_linear_13_23)"/>
<defs>
<linearGradient id="paint0_linear_13_23" x1="192.649" y1="34.8967" x2="64.6489" y2="210.397" gradientUnits="userSpaceOnUse">
<stop stop-color="#FFAD80"/>
<stop offset="1" stop-color="#FD99FF"/>
</linearGradient>
</defs>
</svg>
