<svg width="340" height="116" viewBox="0 0 340 116" fill="none" xmlns="http://www.w3.org/2000/svg">
    <path d="M38.4356 85.6967H86.8356V113.897H0.235645V86.6967L46.6356 30.4967H0.635644V2.29666H85.8356V29.4967L38.4356 85.6967ZM210.854 56.2967C210.854 59.4967 210.654 62.83 210.254 66.2967H132.854C133.388 73.23 135.588 78.5633 139.454 82.2967C143.454 85.8967 148.321 87.6967 154.054 87.6967C162.588 87.6967 168.521 84.0967 171.854 76.8967H208.254C206.388 84.23 202.988 90.83 198.054 96.6967C193.254 102.563 187.188 107.163 179.854 110.497C172.521 113.83 164.321 115.497 155.254 115.497C144.321 115.497 134.588 113.163 126.054 108.497C117.521 103.83 110.854 97.1633 106.054 88.4967C101.254 79.83 98.8544 69.6967 98.8544 58.0967C98.8544 46.4967 101.188 36.3633 105.854 27.6967C110.654 19.03 117.321 12.3633 125.854 7.69666C134.388 3.02999 144.188 0.696659 155.254 0.696659C166.054 0.696659 175.654 2.96333 184.054 7.49667C192.454 12.03 198.988 18.4967 203.654 26.8967C208.454 35.2967 210.854 45.0967 210.854 56.2967ZM175.854 47.2967C175.854 41.43 173.854 36.7633 169.854 33.2967C165.854 29.83 160.854 28.0967 154.854 28.0967C149.121 28.0967 144.254 29.7633 140.254 33.0967C136.388 36.43 133.988 41.1633 133.054 47.2967H175.854ZM296.897 1.09667C309.963 1.09667 320.363 5.36333 328.097 13.8967C335.963 22.2967 339.897 33.8967 339.897 48.6967V113.897H305.897V53.2967C305.897 45.83 303.963 40.03 300.097 35.8967C296.23 31.7633 291.03 29.6967 284.497 29.6967C277.963 29.6967 272.763 31.7633 268.897 35.8967C265.03 40.03 263.097 45.83 263.097 53.2967V113.897H228.897V2.29666H263.097V17.0967C266.563 12.1633 271.23 8.29666 277.097 5.49666C282.963 2.56333 289.563 1.09667 296.897 1.09667Z" fill="url(#paint0_linear_13_24)"/>
    <defs>
    <linearGradient id="paint0_linear_13_24" x1="38.0984" y1="41.3967" x2="239.612" y2="-122.037" gradientUnits="userSpaceOnUse">
    <stop stop-color="#FD99FF"/>
    <stop offset="1" stop-color="#FBAF83"/>
    </linearGradient>
    </defs>
    </svg>
    